<svg xmlns="http://www.w3.org/2000/svg" viewBox="0 0 512 512">
  <rect width="512" height="512" rx="96" fill="#f3f0e8"/>
  <path d="M120 186c0-24 20-44 44-44h224c24 0 44 20 44 44v140c0 24-20 44-44 44H164c-24 0-44-20-44-44z" fill="#9ba6ad"/>
  <path d="M158 184h202c18 0 32 14 32 32v80c0 18-14 32-32 32H158z" fill="#56646d"/>
  <path d="M158 184v144h-10c-18 0-32-14-32-32v-80c0-18 14-32 32-32z" fill="#d4d9dc"/>
  <path d="M156 184h212c14 0 26 12 26 26v92c0 14-12 26-26 26H156" fill="none" stroke="#eff3f5" stroke-width="20" stroke-linejoin="round"/>
  <circle cx="340" cy="210" r="18" fill="#f3f0e8"/>
  <circle cx="340" cy="302" r="18" fill="#f3f0e8"/>
</svg>
