<svg xmlns="http://www.w3.org/2000/svg" viewBox="0 0 128 128" role="img" aria-label="溶接基礎">
  <defs>
    <linearGradient id="g" x1="18" y1="18" x2="108" y2="112" gradientUnits="userSpaceOnUse">
      <stop stop-color="#2b6cb0"/>
      <stop offset=".48" stop-color="#202a31"/>
      <stop offset="1" stop-color="#d7672f"/>
    </linearGradient>
  </defs>
  <rect width="128" height="128" rx="26" fill="#f4f1ea"/>
  <path d="M24 78h80v16H24z" fill="#9da6ad"/>
  <path d="M31 71c16-15 48-15 66 0" fill="none" stroke="#d7672f" stroke-width="9" stroke-linecap="round"/>
  <path d="M36 67c13-8 41-8 56 0" fill="none" stroke="#f2c14e" stroke-width="5" stroke-linecap="round"/>
  <path d="M75 21l31 20-40 52-24-16z" fill="url(#g)"/>
  <path d="M79 35l13 8-27 35-10-7z" fill="#f7f7f7" opacity=".9"/>
  <circle cx="64" cy="75" r="8" fill="#fff2bf"/>
  <path d="M64 48v12M64 90v13M40 75H28M100 75H88M48 59l-8-8M88 99l-8-8M80 59l8-8M40 99l8-8" stroke="#2368c5" stroke-width="5" stroke-linecap="round"/>
</svg>
